<?xml version="1.0" standalone="no"?>
<!DOCTYPE svg PUBLIC "-//W3C//DTD SVG 20010904//EN"
 "http://www.w3.org/TR/2001/REC-SVG-20010904/DTD/svg10.dtd">
<svg version="1.0" xmlns="http://www.w3.org/2000/svg"
 width="700.000000pt" height="700.000000pt" viewBox="0 0 700.000000 700.000000"
 preserveAspectRatio="xMidYMid meet">
<metadata>
Created by potrace 1.14, written by Peter Selinger 2001-2017
</metadata>
<g transform="translate(0.000000,700.000000) scale(0.100000,-0.100000)"
fill="#000000" stroke="none">
<path d="M3375 6306 c-228 -75 -718 -252 -751 -271 -78 -46 -128 -126 -140
-226 l-6 -54 -110 -33 c-149 -44 -442 -151 -613 -223 -245 -103 -433 -234
-553 -384 -116 -143 -159 -249 -169 -410 -5 -82 -11 -110 -33 -155 -95 -190
-100 -393 -14 -594 39 -89 41 -133 11 -192 -92 -182 -92 -385 -1 -566 31 -61
30 -81 -6 -150 -42 -80 -60 -158 -60 -263 0 -107 17 -186 65 -301 l35 -84 -35
-70 c-52 -102 -68 -184 -62 -310 4 -86 10 -121 37 -192 89 -243 303 -445 644
-609 158 -76 314 -128 561 -189 535 -132 967 -173 1599 -151 373 12 574 36
854 102 708 165 1060 347 1303 674 97 130 140 255 142 410 2 101 -14 160 -69
263 -19 34 -34 68 -34 75 0 7 18 48 40 92 95 188 91 415 -11 579 l-31 50 41
86 c92 193 92 364 1 545 -22 44 -40 85 -40 92 0 7 15 43 34 80 49 99 67 165
73 278 7 121 -13 211 -76 351 -37 82 -41 100 -41 170 -1 233 -193 490 -505
672 -168 99 -457 208 -745 281 -204 52 -190 45 -190 95 0 102 -61 212 -145
262 -25 14 -223 84 -440 155 -425 138 -463 146 -560 115z m510 -342 c247 -81
367 -125 383 -141 22 -22 22 -23 22 -363 0 -340 0 -341 -22 -363 -17 -17 -118
-48 -397 -126 l-374 -104 -379 114 c-236 70 -386 120 -399 132 -21 20 -21 24
-14 351 6 290 9 334 24 355 13 19 66 41 231 99 118 41 276 96 350 122 94 34
147 47 175 46 22 -2 202 -57 400 -122z m-1409 -479 c-3 -8 -6 -100 -7 -204 -1
-173 1 -193 21 -237 25 -57 78 -116 135 -149 74 -43 795 -255 868 -255 26 0
47 -4 47 -9 0 -12 -49 -83 -69 -99 -50 -41 -120 -62 -261 -77 -225 -25 -381
-85 -480 -185 -69 -68 -83 -107 -86 -229 -3 -87 -7 -112 -27 -150 -28 -56 -78
-86 -155 -96 -115 -14 -196 -60 -240 -134 -27 -46 -27 -47 -27 -242 0 -190 -1
-198 -25 -247 -14 -28 -35 -57 -47 -63 -18 -10 -23 -21 -23 -55 0 -38 -3 -44
-25 -50 -31 -8 -112 11 -152 36 -37 22 -76 73 -92 119 -7 23 -11 147 -11 376
0 388 -2 400 -73 473 -55 56 -109 87 -194 110 -67 19 -125 45 -169 77 -20 15
-22 14 -28 -10 -4 -14 -10 -25 -14 -25 -24 1 -33 23 -38 96 -6 75 -4 82 25
138 l31 58 -29 49 c-107 173 -71 359 103 535 160 161 379 272 769 388 282 85
283 85 273 61z m2169 -19 c181 -45 348 -103 414 -146 208 -134 417 -322 467
-420 37 -73 39 -164 5 -229 -57 -109 -203 -222 -441 -341 -74 -37 -142 -76
-152 -86 -9 -11 -19 -36 -23 -56 -6 -32 -3 -40 19 -61 l26 -24 -127 -38 c-220
-64 -445 -110 -713 -146 -201 -26 -612 -41 -823 -29 -89 5 -179 9 -201 10 -38
0 -39 0 -33 34 10 61 44 125 72 136 15 6 64 10 111 10 100 0 203 20 322 62
226 79 327 172 363 335 l13 56 70 32 c39 18 150 61 246 95 663 238 710 261
724 349 16 99 -47 146 -309 236 l-150 51 -3 84 c-3 84 1 110 15 110 4 0 53
-11 108 -24z m1206 -1143 c18 -92 6 -185 -36 -271 -124 -250 -434 -476 -841
-612 -307 -102 -517 -146 -929 -192 -167 -18 -257 -22 -540 -23 -357 0 -394 3
-770 55 -162 23 -213 34 -223 47 -7 10 -12 49 -12 98 0 108 12 125 87 125 31
0 73 5 93 11 30 9 56 8 121 -4 142 -27 427 -42 775 -41 344 2 439 9 684 50
351 60 559 109 765 181 255 89 394 159 527 266 105 84 170 164 224 275 25 50
50 92 54 92 5 0 14 -26 21 -57z m-4638 -30 c30 -46 49 -86 57 -124 21 -109 96
-174 240 -209 108 -26 129 -39 162 -95 19 -33 23 -58 26 -149 l4 -109 -28 7
c-16 4 -54 23 -84 41 -30 19 -80 49 -110 67 -30 17 -99 76 -152 130 -138 139
-188 248 -188 410 0 32 6 67 12 78 7 11 13 20 14 20 0 0 21 -30 47 -67z m4636
-705 c21 -97 6 -189 -48 -296 -86 -171 -345 -374 -636 -500 -273 -118 -728
-227 -1100 -262 -66 -6 -156 -15 -199 -21 -123 -14 -620 -11 -793 6 -435 42
-772 113 -1153 242 -145 49 -371 174 -507 280 -183 141 -284 327 -270 493 6
70 24 130 38 130 5 0 28 -19 51 -42 63 -62 187 -145 313 -209 l110 -56 7 -96
c12 -164 37 -226 131 -324 66 -69 123 -97 230 -112 116 -16 227 17 325 97 l44
36 111 -27 c60 -15 114 -24 118 -20 6 6 29 118 29 144 0 3 39 0 88 -7 421 -64
931 -71 1377 -19 l120 14 70 -53 c128 -97 100 -92 287 -51 658 141 1095 384
1184 660 31 94 52 92 73 -7z m-4629 -692 c23 -25 89 -77 147 -116 340 -229
886 -401 1518 -477 127 -15 229 -18 655 -18 553 1 621 6 922 65 84 16 155 30
158 30 3 0 5 -29 5 -64 0 -36 3 -68 7 -72 9 -9 203 39 358 88 456 146 689 301
800 530 45 92 58 88 67 -19 14 -169 -63 -318 -245 -476 -313 -272 -814 -437
-1611 -532 -522 -62 -1153 -16 -1726 126 -291 72 -472 142 -744 288 -14 8 -62
42 -106 76 -126 99 -196 181 -247 292 -30 62 -32 76 -32 168 0 87 13 155 29
155 2 0 23 -20 45 -44z m8 -707 c66 -57 240 -173 331 -218 169 -85 430 -176
691 -241 473 -119 950 -165 1467 -142 143 6 328 19 413 28 l153 16 41 -31 c22
-17 64 -46 91 -66 l51 -35 95 19 c311 64 632 167 822 262 184 94 332 228 394
359 21 44 41 80 44 80 13 0 30 -86 30 -154 0 -135 -55 -242 -195 -381 -247
-246 -665 -414 -1291 -520 -297 -51 -420 -59 -865 -59 -455 -1 -561 7 -898 65
-506 86 -861 213 -1150 412 -184 127 -312 328 -312 491 0 39 28 156 37 156 3
0 26 -18 51 -41z"/>
</g>
</svg>
